<svg width="29" height="25" viewBox="0 0 29 25" fill="none" xmlns="http://www.w3.org/2000/svg">
<path d="M14.9688 1.1875L27.7188 12.4375C28.0469 12.7188 28.0469 13.1875 27.8125 13.5156C27.5312 13.8438 27.0625 13.8438 26.7344 13.5625L25 12.0156V21.25C25 23.3594 23.3125 25 21.25 25H7.75C5.64062 25 4 23.3594 4 21.25V12.0156L2.21875 13.5625C1.9375 13.8438 1.42188 13.8438 1.1875 13.5156C0.90625 13.1875 0.90625 12.7188 1.23438 12.4375L13.9844 1.1875C14.2656 0.953125 14.6875 0.953125 14.9688 1.1875ZM5.5 21.25C5.5 22.5156 6.48438 23.5 7.75 23.5H10.75V16C10.75 15.2031 11.4062 14.5 12.25 14.5H16.75C17.5469 14.5 18.25 15.2031 18.25 16V23.5H21.25C22.4688 23.5 23.5 22.5156 23.5 21.25V10.7031L14.5 2.78125L5.5 10.7031V21.25ZM12.25 23.5H16.75V16H12.25V23.5Z" fill="#18B115"/>
</svg>
